<?xml version="1.0" encoding="UTF-8"?>
<svg version="1.1" xmlns="http://www.w3.org/2000/svg" width="827" height="703">
<path d="M0 0 C2.23748198 0.0009705 4.47151114 -0.04060565 6.70849609 -0.08496094 C8.13687439 -0.09016983 9.56526456 -0.0928561 10.99365234 -0.09277344 C12.93667236 -0.1034082 12.93667236 -0.1034082 14.91894531 -0.11425781 C19.28043618 0.6618301 20.62598286 2.09678579 23.37646484 5.50097656 C24.92675781 7.72631836 24.92675781 7.72631836 26.24365234 10.01269531 C27.0011377 11.32052979 27.0011377 11.32052979 27.77392578 12.65478516 C28.30276367 13.59402832 28.83160156 14.53327148 29.37646484 15.50097656 C29.93366211 16.49049316 30.49085938 17.48000977 31.06494141 18.49951172 C32.88835461 21.76472887 34.69633911 25.03811693 36.50146484 28.31347656 C42.49529661 39.15197531 48.58306173 49.93254142 54.75292969 60.671875 C57.88574847 66.13098839 61.0048665 71.59794221 64.12646484 77.06347656 C65.49352283 79.45677974 66.860714 81.85000677 68.22802734 84.24316406 C68.57014755 84.84197388 68.91226776 85.44078369 69.26475525 86.05773926 C71.32300322 89.65955979 73.383484 93.26009206 75.44584656 96.85955811 C82.24761578 108.73092777 89.02075504 120.61630557 95.68896484 132.56347656 C100.99586636 142.06991945 106.39958067 151.51344769 111.87792969 160.921875 C114.80638084 165.96197894 117.71501986 171.01353658 120.62646484 176.06347656 C124.48499039 182.75558378 128.34433495 189.4471912 132.21240234 196.13378906 C140.35116497 210.20930657 148.40658198 224.32912761 156.37646484 238.50097656 C158.66156217 235.61158024 160.41740505 232.69370859 162.09130859 229.41503906 C162.60612793 228.41375977 163.12094727 227.41248047 163.65136719 226.38085938 C164.47435303 224.76969238 164.47435303 224.76969238 165.31396484 223.12597656 C169.52750631 214.94363438 173.80540053 206.80932653 178.25146484 198.75097656 C183.27907308 189.62222971 188.08142004 180.38617445 192.84417725 171.11779785 C197.37648326 162.30305437 202.03060371 153.56705 206.81787109 144.88769531 C210.96960276 137.32600803 214.93408636 129.67294775 218.87646484 122.00097656 C223.75333787 112.51065397 228.73668015 103.09198088 233.88818359 93.74707031 C237.8361552 86.55838404 241.620519 79.29156866 245.37646484 72.00097656 C250.6464859 61.77348924 256.07095109 51.64504538 261.60693359 41.55957031 C264.27158375 36.70334532 266.90044297 31.829059 269.50146484 26.93847656 C269.86796143 26.25382324 270.23445801 25.56916992 270.61206055 24.86376953 C272.41096734 21.4687465 273.98168354 18.07811294 275.37646484 14.50097656 C274.20458618 14.50883179 274.20458618 14.50883179 273.0090332 14.5168457 C269.44401871 14.53772775 265.87901713 14.55067237 262.31396484 14.56347656 C261.08484375 14.57185547 259.85572266 14.58023438 258.58935547 14.58886719 C246.34645044 14.62186693 246.34645044 14.62186693 241.37646484 13.50097656 C239.37646484 11.50097656 239.37646484 11.50097656 239.14599609 9.15332031 C239.16017578 8.25742188 239.17435547 7.36152344 239.18896484 6.43847656 C239.19541016 5.54 239.20185547 4.64152344 239.20849609 3.71582031 C239.37646484 1.50097656 239.37646484 1.50097656 240.37646484 0.50097656 C243.17098755 0.40045781 245.94082839 0.36481763 248.73583984 0.37158203 C250.05038147 0.36895355 250.05038147 0.36895355 251.39147949 0.36627197 C254.30316112 0.36185224 257.21478255 0.36479187 260.12646484 0.36816406 C262.14046236 0.36749106 264.1544598 0.36652106 266.16845703 0.36526489 C270.3953529 0.36378775 274.62222767 0.36594299 278.84912109 0.37060547 C284.28027017 0.37630276 289.71136983 0.37302384 295.14251709 0.367033 C299.30306372 0.36342782 303.46359854 0.36456578 307.62414551 0.3671608 C309.62731939 0.36783018 311.63049434 0.36700124 313.63366699 0.36468124 C316.42817037 0.36215542 319.22259255 0.36599432 322.01708984 0.37158203 C323.27169006 0.36854568 323.27169006 0.36854568 324.55163574 0.365448 C330.26220242 0.38671414 330.26220242 0.38671414 331.37646484 1.50097656 C331.44872986 3.35385158 331.46027704 5.20931534 331.43896484 7.06347656 C331.42994141 8.07539062 331.42091797 9.08730469 331.41162109 10.12988281 C331.39421875 11.30357422 331.39421875 11.30357422 331.37646484 12.50097656 C326.69134344 14.33318236 322.80693783 14.73642035 317.79052734 14.69628906 C316.73785172 14.69204422 316.73785172 14.69204422 315.66390991 14.68771362 C313.44291456 14.67660168 311.22233639 14.6515149 309.00146484 14.62597656 C307.48714779 14.6159351 305.97282436 14.6068113 304.45849609 14.59863281 C300.76435226 14.57669211 297.07044933 14.54222532 293.37646484 14.50097656 C293.10278076 15.21890381 292.82909668 15.93683105 292.54711914 16.67651367 C291.39354582 19.45976492 290.08347301 22.045642 288.64599609 24.69238281 C288.09838623 25.70445801 287.55077637 26.7165332 286.98657227 27.75927734 C286.09675659 29.39485596 286.09675659 29.39485596 285.18896484 31.06347656 C284.23758867 32.82136054 283.28622149 34.57924944 282.33534241 36.33740234 C281.67561771 37.55697636 281.01556865 38.77637496 280.35520935 39.99560547 C276.90680866 46.36275688 273.48285028 52.74293206 270.06396484 59.12597656 C269.44972656 60.27219482 268.83548828 61.41841309 268.20263672 62.59936523 C264.81256241 68.92942202 261.435851 75.26643799 258.07177734 81.61035156 C257.71041687 82.29177719 257.3490564 82.97320282 256.97674561 83.67527771 C255.51676276 86.4286454 254.05682349 89.18203615 252.59716797 91.93557739 C247.67160455 101.22411946 242.68214793 110.47393642 237.62182617 119.68994141 C233.59878145 127.03937579 229.72792254 134.46340401 225.87304688 141.90209961 C222.47636404 148.43958109 218.98823637 154.92021497 215.43896484 161.37597656 C211.14089105 169.1957705 206.9720679 177.07331572 202.87646484 185.00097656 C198.37088404 193.71790433 193.76428133 202.36851895 189.04321289 210.97045898 C184.8796372 218.56061588 180.77491564 226.18136816 176.68896484 233.81347656 C175.79878662 235.47503784 175.79878662 235.47503784 174.890625 237.17016602 C173.72442561 239.34977567 172.56920621 241.53530288 171.42611599 243.7271204 C170.07467634 246.27524001 168.62757824 248.72109219 167.08179569 251.15566921 C159.98862339 262.71295106 159.09671266 272.45469184 159.26293945 285.80004883 C159.2555976 287.88136473 159.24430289 289.96266981 159.22940063 292.04394531 C159.20033979 297.64039153 159.22590298 303.23535777 159.26199031 308.83171201 C159.29030485 314.70003829 159.26739368 320.56817086 159.25013733 326.43650818 C159.22520108 337.52489188 159.24569961 348.61269744 159.28291088 359.70102781 C159.32306742 372.33485297 159.31198148 384.96847512 159.29679477 397.60233605 C159.26671893 423.56871939 159.30033213 449.53470257 159.37646484 475.50097656 C160.46588379 475.49050293 161.55530273 475.4800293 162.67773438 475.46923828 C166.73678271 475.43291633 170.79581679 475.41003183 174.85498047 475.39111328 C176.60858581 475.38108344 178.36217455 475.36745628 180.11572266 475.35009766 C182.6427827 475.32571626 185.16962074 475.31446316 187.69677734 475.30566406 C188.47513947 475.29534149 189.25350159 475.28501892 190.05545044 475.27438354 C194.56012346 475.27346436 198.13085572 475.79446608 202.37646484 477.50097656 C202.43432131 481.45924892 202.47001201 485.41741326 202.50146484 489.37597656 C202.51822266 490.50390625 202.53498047 491.63183594 202.55224609 492.79394531 C202.55869141 493.8703125 202.56513672 494.94667969 202.57177734 496.05566406 C202.58225098 497.05065918 202.59272461 498.0456543 202.60351562 499.07080078 C202.37646484 501.50097656 202.37646484 501.50097656 200.37646484 503.50097656 C197.75932217 503.74986553 197.75932217 503.74986553 194.37217712 503.74821472 C193.09192154 503.75240921 191.81166595 503.7566037 190.49261475 503.76092529 C189.06579515 503.75544141 187.6389763 503.74975842 186.2121582 503.74389648 C184.71596697 503.74496891 183.21977614 503.74690701 181.72358704 503.74964905 C177.65347937 503.75450643 173.58348094 503.74683094 169.51338649 503.736696 C165.26173823 503.72793141 161.01009356 503.72967263 156.75843811 503.73005676 C149.61864385 503.72911949 142.47889203 503.72042645 135.33911133 503.70678711 C127.07300083 503.69105491 118.80693682 503.68578917 110.54081243 503.68652266 C102.60224506 503.68713206 94.66369289 503.68203508 86.72513008 503.67373085 C83.34036706 503.67019149 79.95560943 503.66836667 76.57084465 503.66783714 C72.58921405 503.66683588 68.6076228 503.66075713 64.62600517 503.65067101 C63.16061138 503.64773922 61.69521305 503.646522 60.22981644 503.64709854 C58.23779636 503.64758588 56.24577795 503.64134007 54.25376892 503.63468933 C53.13638808 503.63301349 52.01900724 503.63133764 50.86776638 503.62961102 C48.37646484 503.50097656 48.37646484 503.50097656 47.37646484 502.50097656 C47.27674699 500.58639374 47.24565896 498.66815339 47.24365234 496.75097656 C47.24236328 495.58566406 47.24107422 494.42035156 47.23974609 493.21972656 C47.24361328 491.99253906 47.24748047 490.76535156 47.25146484 489.50097656 C47.24759766 488.27378906 47.24373047 487.04660156 47.23974609 485.78222656 C47.24167969 484.03425781 47.24167969 484.03425781 47.24365234 482.25097656 C47.24478027 481.17332031 47.2459082 480.09566406 47.24707031 478.98535156 C47.37646484 476.50097656 47.37646484 476.50097656 48.37646484 475.50097656 C51.47897685 475.41223522 54.55914605 475.38579201 57.66162109 475.40332031 C58.59244003 475.40473526 59.52325897 475.40615021 60.48228455 475.40760803 C63.46787675 475.41322484 66.45339514 475.42578017 69.43896484 475.43847656 C71.45784397 475.4434894 73.47672427 475.44805268 75.49560547 475.45214844 C80.45592056 475.46319973 85.41618017 475.48047561 90.37646484 475.50097656 C90.52666233 448.36991134 90.60739448 421.23939226 90.60705948 394.10789299 C90.60849614 381.50811711 90.63204653 368.9091301 90.70898438 356.30957031 C90.77604289 345.31845176 90.80025679 334.32818392 90.77455974 323.33687699 C90.76242756 317.52503978 90.77070323 311.7149574 90.83042145 305.90337753 C92.10063475 273.20068709 92.10063475 273.20068709 78.77601528 244.30414486 C76.76625627 241.71478928 75.26923461 238.96367943 73.70458984 236.08691406 C72.68145789 234.3482194 71.65546075 232.61120726 70.62646484 230.87597656 C65.46552525 222.0954689 60.36284206 213.28374254 55.31396484 204.43847656 C54.80793732 203.55231659 54.80793732 203.55231659 54.29168701 202.64825439 C49.21909888 193.76218812 44.18821277 184.85292516 39.16699219 175.93774414 C35.32181916 169.12895411 31.3946131 162.37107476 27.43896484 155.62597656 C22.65553752 147.46936482 17.97539587 139.26298347 13.37646484 131.00097656 C6.54556172 118.73389685 -0.50537927 106.6031272 -7.62353516 94.50097656 C-8.65744264 92.74059121 -9.69129907 90.98017587 -10.72509766 89.21972656 C-13.0213398 85.31156325 -15.32113184 81.40551306 -17.62353516 77.50097656 C-20.50885959 83.79548236 -23.08183579 90.1604576 -25.49462891 96.64941406 C-25.85304367 97.6066185 -26.21145844 98.56382294 -26.58073425 99.55003357 C-27.74354225 102.65767674 -28.90235998 105.76679039 -30.06103516 108.87597656 C-30.8744719 111.05272871 -31.68811333 113.22940437 -32.50195312 115.40600586 C-34.88006506 121.76941429 -37.25285344 128.13479673 -39.62353516 134.50097656 C-39.94143005 135.3545575 -40.25932495 136.20813843 -40.58685303 137.08758545 C-43.78852703 145.68622271 -46.98188597 154.28793461 -50.17195129 162.8908844 C-53.48492695 171.82498344 -56.80248571 180.75737567 -60.12353516 189.68847656 C-60.44798615 190.5610611 -60.77243713 191.43364563 -61.10671997 192.33267212 C-65.40959274 203.90149117 -69.73011483 215.46362369 -74.06494141 227.02050781 C-74.29778713 227.64129904 -74.53063286 228.26209026 -74.77053452 228.90169334 C-77.29668472 235.63618134 -79.82452521 242.37003285 -82.35400391 249.10327148 C-82.78422348 250.24910202 -83.21444305 251.39493256 -83.65769958 252.57548523 C-84.45037676 254.68660639 -85.24350362 256.79755879 -86.0372467 258.90827942 C-89.60929299 268.42321988 -93.11599551 277.96211806 -96.62353516 287.50097656 C-95.78955232 287.5052085 -94.95556948 287.50944044 -94.09631443 287.51380062 C-73.83378232 287.61696068 -53.57128593 287.72557614 -33.30881596 287.84031582 C-23.51017022 287.8956698 -13.71152085 287.9491553 -3.9128418 287.99829102 C4.62447427 288.04110628 13.16176328 288.08737745 21.69903761 288.13785511 C26.22234825 288.16447754 30.74565344 288.18933106 35.26899529 288.21005058 C39.52147046 288.22958387 43.77389406 288.25371752 48.02632332 288.28146744 C49.59168693 288.29085547 51.15706188 288.2985244 52.72244263 288.30439568 C54.85037353 288.31262725 56.97817823 288.32689524 59.10606384 288.34275818 C60.89664671 288.35243701 60.89664671 288.35243701 62.72340298 288.36231136 C65.37646484 288.50097656 65.37646484 288.50097656 66.37646484 289.50097656 C66.47469229 290.96902948 66.50444855 292.44175116 66.50585938 293.91308594 C66.50901154 294.85075806 66.5121637 295.78843018 66.51541138 296.7545166 C66.51237503 298.28417053 66.51237503 298.28417053 66.50927734 299.84472656 C66.51071243 301.4038678 66.51071243 301.4038678 66.51217651 302.99450684 C66.51285847 305.1970221 66.51100311 307.39953936 66.50683594 309.60205078 C66.50148792 312.98637375 66.50678043 316.370564 66.51318359 319.75488281 C66.51252282 321.88899769 66.51124166 324.02311249 66.50927734 326.15722656 C66.51130157 327.17699585 66.51332581 328.19676514 66.51541138 329.24743652 C66.51225922 330.18510864 66.50910706 331.12278076 66.50585938 332.08886719 C66.50466599 333.33343689 66.50466599 333.33343689 66.50344849 334.60314941 C66.37646484 336.50097656 66.37646484 336.50097656 65.37646484 337.50097656 C63.3009663 337.59563186 61.22218346 337.61839077 59.14453125 337.61450195 C58.48596886 337.61465081 57.82740646 337.61479967 57.14888763 337.61495304 C54.9252358 337.6142544 52.70166495 337.60639289 50.47802734 337.59863281 C48.88972012 337.59671488 47.30141229 337.5952505 45.71310425 337.59420776 C42.28146255 337.59103703 38.84984521 337.58475307 35.41821289 337.57614136 C29.97786643 337.56263474 24.53752816 337.55672667 19.09716797 337.55200195 C6.54451844 337.53993671 -6.0081103 337.51801022 -18.56074524 337.49577332 C-30.02159344 337.47553723 -41.48243403 337.45745688 -52.94329643 337.4475584 C-58.33516013 337.44261354 -63.72698525 337.43280793 -69.11883354 337.41912842 C-72.50227534 337.41158266 -75.88571212 337.40833587 -79.26916122 337.40616226 C-80.81975492 337.40431507 -82.37034786 337.40076549 -83.92093277 337.39522934 C-94.52528227 337.35861582 -105.04412459 337.77138522 -115.62353516 338.50097656 C-116.42744467 340.65883883 -117.23135402 342.81670116 -118.03526306 344.9745636 C-118.76789717 346.94110668 -119.50053272 348.90764922 -120.23316956 350.87419128 C-122.3289823 356.49977396 -124.42476762 362.12536686 -126.52050781 367.75097656 C-130.89936392 379.50508352 -135.27856444 391.25906188 -139.65869141 403.01269531 C-148.66095586 427.17027355 -157.65515803 451.33079513 -166.62353516 475.50097656 C-165.41705322 475.52603271 -164.21057129 475.55108887 -162.9675293 475.5769043 C-158.50777855 475.67080179 -154.04819003 475.7710649 -149.58862305 475.87329102 C-147.65539331 475.91670697 -145.72212357 475.95837699 -143.78881836 475.99829102 C-141.01615314 476.05583288 -138.24369059 476.11957276 -135.47119141 476.18457031 C-134.60140152 476.20128281 -133.73161163 476.2179953 -132.83546448 476.23521423 C-126.73740686 476.38710486 -126.73740686 476.38710486 -125.62353516 477.50097656 C-125.52393895 479.34256679 -125.49273105 481.18794623 -125.49072266 483.03222656 C-125.48943359 484.15242188 -125.48814453 485.27261719 -125.48681641 486.42675781 C-125.49068359 487.60625 -125.49455078 488.78574219 -125.49853516 490.00097656 C-125.49466797 491.18046875 -125.49080078 492.35996094 -125.48681641 493.57519531 C-125.48810547 494.69539063 -125.48939453 495.81558594 -125.49072266 496.96972656 C-125.49185059 498.00548828 -125.49297852 499.04125 -125.49414062 500.10839844 C-125.62353516 502.50097656 -125.62353516 502.50097656 -126.62353516 503.50097656 C-128.02531846 503.59860179 -129.43197968 503.62729314 -130.8371582 503.62796021 C-131.74581635 503.63078003 -132.65447449 503.63359985 -133.59066772 503.63650513 C-135.09773788 503.63346878 -135.09773788 503.63346878 -136.63525391 503.63037109 C-137.68717926 503.63212341 -138.73910461 503.63387573 -139.82290649 503.63568115 C-143.3189659 503.64010199 -146.81497519 503.63716086 -150.31103516 503.63378906 C-152.7285971 503.63446203 -155.14615899 503.635432 -157.5637207 503.63668823 C-162.63802737 503.63816552 -167.71231647 503.63600965 -172.78662109 503.63134766 C-179.30738218 503.62565036 -185.82810212 503.6289292 -192.34886169 503.63492012 C-197.34322421 503.6385249 -202.33757689 503.63738753 -207.3319397 503.63479233 C-209.73703008 503.63412283 -212.14212134 503.63495228 -214.54721069 503.63727188 C-217.90210351 503.63979704 -221.25692866 503.63595974 -224.61181641 503.63037109 C-225.61652985 503.63239532 -226.62124329 503.63441956 -227.65640259 503.63650513 C-228.56506073 503.6336853 -229.47371887 503.63086548 -230.40991211 503.62796021 C-231.20412064 503.62758318 -231.99832916 503.62720615 -232.81660461 503.6268177 C-234.62353516 503.50097656 -234.62353516 503.50097656 -235.62353516 502.50097656 C-235.71101723 500.57430149 -235.7305085 498.64445795 -235.72119141 496.71582031 C-235.71796875 495.54599609 -235.71474609 494.37617187 -235.71142578 493.17089844 C-235.70304688 491.93919922 -235.69466797 490.7075 -235.68603516 489.43847656 C-235.68152344 488.20291016 -235.67701172 486.96734375 -235.67236328 485.69433594 C-235.66053123 482.62983539 -235.64404689 479.56542935 -235.62353516 476.50097656 C-230.87169397 475.54641758 -226.31076483 475.41185524 -221.48681641 475.50878906 C-219.92497377 475.52628968 -218.36312442 475.54319945 -216.80126953 475.55957031 C-214.35861477 475.59063041 -211.91629842 475.6263484 -209.47387695 475.67236328 C-207.10314643 475.71461721 -204.73281974 475.73810333 -202.36181641 475.75878906 C-201.63054031 475.77740997 -200.89926422 475.79603088 -200.14582825 475.81521606 C-196.25903147 475.84781483 -196.25903147 475.84781483 -192.7734375 474.31884766 C-191.30938403 472.00433765 -190.40390909 469.74170178 -189.48681641 467.15722656 C-189.08390381 466.03832031 -188.68099121 464.91941406 -188.26586914 463.76660156 C-187.82702393 462.52394531 -187.38817871 461.28128906 -186.93603516 460.00097656 C-186.19790048 457.94510678 -185.45629045 455.8905102 -184.71455383 453.8359375 C-184.18246275 452.36165707 -183.65131036 450.88703756 -183.12101746 449.41210938 C-180.3128948 441.60863781 -177.41953055 433.83759912 -174.51919556 426.06802368 C-172.82909092 421.53999451 -171.14245685 417.01067268 -169.45556641 412.48144531 C-169.08697006 411.4919841 -168.71837372 410.50252289 -168.33860779 409.483078 C-165.03513687 400.61255505 -161.74084439 391.73863788 -158.44775391 382.86425781 C-147.81254328 354.2059713 -137.16503922 325.55295169 -126.41625977 296.93701172 C-121.52275289 283.90857037 -116.66809736 270.86653434 -111.84716797 257.81103516 C-109.46679666 251.37187431 -107.07644958 244.93641429 -104.68603516 238.50097656 C-104.41781952 237.77889008 -104.14960388 237.05680359 -103.8732605 236.31283569 C-93.41002676 208.14751483 -82.91365249 179.99450676 -72.40869141 151.84472656 C-72.1437941 151.13488932 -71.87889679 150.42505207 -71.60597229 149.69370461 C-69.17436157 143.17786264 -66.74264015 136.66206199 -64.31072998 130.14633179 C-58.18517744 113.73421439 -52.06429523 97.32039535 -45.9602356 80.90026855 C-40.81127132 67.05053011 -35.65518538 53.20344882 -30.47637939 39.36483765 C-29.83969467 37.66292505 -29.20355798 35.96080729 -28.5680542 34.25845337 C-26.60425913 28.99913933 -24.62287252 23.74687837 -22.62353516 18.50097656 C-22.21246521 17.41562622 -22.21246521 17.41562622 -21.79309082 16.30834961 C-20.99804953 14.21796874 -20.19163705 12.13236199 -19.38134766 10.04785156 C-18.92131348 8.85514648 -18.4612793 7.66244141 -17.98730469 6.43359375 C-14.26170061 -1.57785561 -7.90444841 -0.02424146 0 0 Z " fill="#231E20" transform="translate(397.62353515625,82.4990234375)"/>
<path d="M0 0 C0.66 0 1.32 0 2 0 C2 0.66 2 1.32 2 2 C2.66 2.33 3.32 2.66 4 3 C4.98987433 4.72429722 5.97741399 6.4509497 6.90234375 8.2109375 C7.91948109 10.06153449 7.91948109 10.06153449 9.54650813 11.37888652 C12.07102163 14.19453548 11.37769046 17.92510667 11.32279968 21.522995 C11.3212794 22.40352203 11.31975913 23.28404906 11.31819278 24.19125873 C11.30939542 27.15339296 11.27900046 30.11491679 11.2487793 33.0769043 C11.23807538 35.19554032 11.22869735 37.31418341 11.22055054 39.43283081 C11.19461672 45.19500614 11.15006013 50.95690689 11.10225272 56.71893668 C11.05545974 62.73670327 11.02566445 68.75455292 10.99409485 74.77241516 C10.93169101 86.17281296 10.85391816 97.57305247 10.77067453 108.97331506 C10.67666383 121.95009578 10.59970887 134.92695991 10.52421319 147.9038595 C10.36850384 174.60270968 10.19128906 201.30138271 10 228 C9.67 228 9.34 228 9 228 C9.00333092 226.38047078 9.00333092 226.38047078 9.00672913 224.7282238 C9.05900494 198.41914796 9.06515562 172.11036665 9.02334595 145.80126762 C9.00418716 133.07817435 8.99984477 120.35540249 9.03076172 107.63232422 C9.05768083 96.53881404 9.0564136 85.44572029 9.02174091 74.35222542 C9.00436557 68.48180853 9.00080536 62.61213723 9.03103638 56.74175644 C9.05908972 51.20757908 9.04923771 45.67471932 9.01126289 40.14061356 C9.00389097 38.11789975 9.00995017 36.0950815 9.03101921 34.07246399 C9.15850248 20.88192943 7.46725953 12.96355909 0 2 C0 1.34 0 0.68 0 0 Z " fill="#150F12" transform="translate(480,332)"/>
<path d="M0 0 C0.33 0 0.66 0 1 0 C0.67 2.31 0.34 4.62 0 7 C52.14 7 104.28 7 158 7 C158 7.33 158 7.66 158 8 C137.71198031 8.15384147 117.42392621 8.3018764 97.13581371 8.4429636 C87.71608966 8.50860604 78.29638653 8.57616186 68.87670898 8.64819336 C60.66829919 8.71095757 52.45987283 8.77016105 44.25140649 8.82505554 C39.90349766 8.85425761 35.55561834 8.88526517 31.20775414 8.92053413 C27.11784031 8.95365446 23.02792141 8.98202415 18.93794823 9.00670624 C17.4346795 9.01662364 15.93142121 9.02829607 14.42818069 9.04183006 C12.3798657 9.06001224 10.33149325 9.07133971 8.28312683 9.08229065 C7.13549457 9.09058679 5.9878623 9.09888292 4.8054533 9.10743046 C2 9 2 9 -1 8 C-1.8125 6.1875 -1.8125 6.1875 -2 4 C-1.0625 1.75 -1.0625 1.75 0 0 Z " fill="#150E10" transform="translate(300,365)"/>
<path d="M0 0 C0.66 0 1.32 0 2 0 C0.32637235 5.90692112 -2.51675584 11.10235063 -5.375 16.5 C-5.90738281 17.51247803 -6.43976562 18.52495605 -6.98828125 19.56811523 C-12.04569437 29.15414431 -17.22948527 38.67000407 -22.44726562 48.16943359 C-25.22469996 53.2325741 -27.98623219 58.30439088 -30.75 63.375 C-31.7655596 65.23701484 -32.78117826 67.09899746 -33.796875 68.9609375 C-34.22323242 69.74259277 -34.64958984 70.52424805 -35.08886719 71.32958984 C-35.53987793 72.15644287 -35.53987793 72.15644287 -36 73 C-36.66 72.34 -37.32 71.68 -38 71 C-37.46375 70.071875 -36.9275 69.14375 -36.375 68.1875 C-32.41335864 61.24067818 -28.58665774 54.24238403 -25.0625 47.0625 C-22.43909509 41.73934771 -19.50343456 36.66127 -16.41796875 31.59375 C-14.93658623 29.15527111 -14.93658623 29.15527111 -14.48828125 26.84375 C-13.87052235 24.51109239 -12.68860479 23.68860479 -11 22 C-10.00626561 19.7396956 -10.00626561 19.7396956 -9.3125 17.3125 C-9.06113281 16.50425781 -8.80976562 15.69601563 -8.55078125 14.86328125 C-8.36902344 14.24839844 -8.18726563 13.63351563 -8 13 C-7.34 13 -6.68 13 -6 13 C-5.690625 12.05125 -5.38125 11.1025 -5.0625 10.125 C-4 7 -4 7 -3 5 C-2.34 5 -1.68 5 -1 5 C-0.67 3.35 -0.34 1.7 0 0 Z " fill="#191215" transform="translate(631,204)"/>
<path d="M0 0 C1.30186419 3.90559257 0.09860879 6.18689354 -1.30859375 9.85546875 C-1.67695091 10.84792351 -1.67695091 10.84792351 -2.05274963 11.86042786 C-2.83903828 13.97279414 -3.63806673 16.08007775 -4.4375 18.1875 C-4.97285127 19.61882446 -5.50736691 21.05046177 -6.04101562 22.48242188 C-7.35100862 25.99198486 -8.67244744 29.49704353 -10 33 C-10.99 33 -11.98 33 -13 33 C-12.690625 31.989375 -12.38125 30.97875 -12.0625 29.9375 C-11.28247679 27.27242068 -10.88436291 24.99230538 -10.5625 22.1875 C-10.2840625 20.6096875 -10.2840625 20.6096875 -10 19 C-9.01 18.34 -8.02 17.68 -7 17 C-6.74969023 14.41619823 -6.74969023 14.41619823 -7 12 C-6.34 11.67 -5.68 11.34 -5 11 C-5 10.01 -5 9.02 -5 8 C-4.34 8 -3.68 8 -3 8 C-2.87625 7.05125 -2.7525 6.1025 -2.625 5.125 C-2 2 -2 2 0 0 Z " fill="#1C1618" transform="translate(323,305)"/>
<path d="M0 0 C1.51303711 0.00676758 1.51303711 0.00676758 3.05664062 0.01367188 C5.51699147 0.02533231 7.97721239 0.04169622 10.4375 0.0625 C10.4375 0.7225 10.4375 1.3825 10.4375 2.0625 C6.96084905 3.13138524 3.76612522 3.17725767 0.140625 3.16015625 C-1.06464844 3.15693359 -2.26992188 3.15371094 -3.51171875 3.15039062 C-4.76597656 3.14201172 -6.02023437 3.13363281 -7.3125 3.125 C-8.58222656 3.12048828 -9.85195313 3.11597656 -11.16015625 3.11132812 C-14.29431836 3.09954556 -17.42838541 3.08309416 -20.5625 3.0625 C-20.5625 2.4025 -20.5625 1.7425 -20.5625 1.0625 C-13.66631142 0.15679581 -6.95041455 -0.0597984 0 0 Z " fill="#140D10" transform="translate(716.5625,93.9375)"/>
<path d="M0 0 C0.66 0.66 1.32 1.32 2 2 C0.74773357 5.48613524 -0.5298504 8.96244056 -1.8125 12.4375 C-2.16892578 13.43072266 -2.52535156 14.42394531 -2.89257812 15.44726562 C-3.24384766 16.39150391 -3.59511719 17.33574219 -3.95703125 18.30859375 C-4.27647705 19.18314209 -4.59592285 20.05769043 -4.92504883 20.95874023 C-6 23 -6 23 -9 24 C-8.72319255 17.77183248 -7.78387366 14.11935847 -4 9 C-2.88968004 6.70178315 -1.95677296 4.3691521 -1 2 C-0.67 1.34 -0.34 0.68 0 0 Z " fill="#1F1A1B" transform="translate(361,202)"/>
<path d="M0 0 C3.76554028 1.46076993 5.05709721 3.26544609 7 6.75 C8.68260472 9.7062726 10.35209032 12.59478263 12.3125 15.375 C13.84252496 17.75503882 14.54355633 19.26133796 15 22 C15.185625 22.7425 15.37125 23.485 15.5625 24.25 C15.706875 24.8275 15.85125 25.405 16 26 C13.351338 23.59681407 11.67146794 21.00511973 9.86328125 17.9296875 C9.28642578 16.95128906 8.70957031 15.97289062 8.11523438 14.96484375 C7.52033203 13.94519531 6.92542969 12.92554688 6.3125 11.875 C5.70599609 10.84761719 5.09949219 9.82023438 4.47460938 8.76171875 C0 1.14129289 0 1.14129289 0 0 Z " fill="#1A1518" transform="translate(392,180)"/>
<path d="M0 0 C0.33 0 0.66 0 1 0 C0.48065724 6.3784069 -1.1364003 11.60049419 -3.5625 17.5 C-4.0565332 18.73363281 -4.0565332 18.73363281 -4.56054688 19.9921875 C-5.36528009 21.99818913 -6.18145758 23.99959345 -7 26 C-7.66 26 -8.32 26 -9 26 C-8.88637738 24.5199159 -8.75877092 23.04089926 -8.625 21.5625 C-8.55539062 20.73878906 -8.48578125 19.91507813 -8.4140625 19.06640625 C-8.20910156 18.04353516 -8.20910156 18.04353516 -8 17 C-7.34 16.67 -6.68 16.34 -6 16 C-5.63183957 14.67585998 -5.30789078 13.33943725 -5 12 C-4.17265591 9.90587005 -3.31629858 7.82306332 -2.4375 5.75 C-1.98246094 4.67234375 -1.52742188 3.5946875 -1.05859375 2.484375 C-0.70925781 1.66453125 -0.35992187 0.8446875 0 0 Z " fill="#1C1719" transform="translate(371,174)"/>
<path d="M0 0 C0.89753304 2.46152694 1.14514362 3.61993956 0.19555664 6.10644531 C-0.22862549 6.83959961 -0.65280762 7.57275391 -1.08984375 8.328125 C-1.54423828 9.12734375 -1.99863281 9.9265625 -2.46679688 10.75 C-2.95212891 11.575 -3.43746094 12.4 -3.9375 13.25 C-4.41896484 14.09046875 -4.90042969 14.9309375 -5.39648438 15.796875 C-6.58683965 17.87115747 -7.78819948 19.93819665 -9 22 C-9.66 22 -10.32 22 -11 22 C-10.690625 21.484375 -10.38125 20.96875 -10.0625 20.4375 C-8.8272154 17.89854532 -8.8272154 17.89854532 -8.5 14.5 C-7.72015612 9.04109286 -5.90029984 6.77841547 -2 3 C-1.34 2.01 -0.68 1.02 0 0 Z " fill="#1B1517" transform="translate(673,126)"/>
<path d="M0 0 C0.66 0.33 1.32 0.66 2 1 C-2.29 9.25 -6.58 17.5 -11 26 C-11.66 25.34 -12.32 24.68 -13 24 C-4.66393443 6.99590164 -4.66393443 6.99590164 0 0 Z " fill="#191416" transform="translate(661,149)"/>
<path d="M0 0 C0.66 0 1.32 0 2 0 C1.52223477 6.44983059 0.09126102 12.26517783 -3 18 C-3.99 18.66 -4.98 19.32 -6 20 C-5.67 17.36 -5.34 14.72 -5 12 C-4.34 12 -3.68 12 -3 12 C-3.020625 11.2575 -3.04125 10.515 -3.0625 9.75 C-3.00671312 7.29537721 -2.6930096 5.33890739 -2 3 C-1.34 3 -0.68 3 0 3 C0 2.01 0 1.02 0 0 Z " fill="#1D1618" transform="translate(334,271)"/>
<path d="M0 0 C0.66 0 1.32 0 2 0 C1.35983027 5.13756468 -0.19700333 9.58790181 -2.0625 14.375 C-2.34416016 15.11105469 -2.62582031 15.84710938 -2.91601562 16.60546875 C-3.60566618 18.4055736 -4.30213932 20.2030621 -5 22 C-5.66 22 -6.32 22 -7 22 C-7.55260842 17.57913267 -6.11057447 14.97132037 -4.08984375 11.203125 C-2.31334969 7.6119327 -1.16852457 3.82426222 0 0 Z " fill="#1C1718" transform="translate(309,340)"/>
<path d="M0 0 C0.66 0 1.32 0 2 0 C2 0.66 2 1.32 2 2 C2.66 2.33 3.32 2.66 4 3 C5.00582863 4.75208859 6.00923572 6.5058438 6.98046875 8.27734375 C8.09359109 10.15813666 9.3349211 11.58468294 11 13 C10.34 14.32 9.68 15.64 9 17 C0 2.79918033 0 2.79918033 0 0 Z " fill="#1B1517" transform="translate(480,332)"/>
<path d="M0 0 C0.66 0.33 1.32 0.66 2 1 C-1.63 7.27 -5.26 13.54 -9 20 C-9.66 19.67 -10.32 19.34 -11 19 C-10.04901734 17.01729088 -9.08899297 15.03891621 -8.125 13.0625 C-7.32449219 11.40927734 -7.32449219 11.40927734 -6.5078125 9.72265625 C-5 7 -5 7 -3 6 C-2.65657551 4.66923011 -2.32380126 3.33568021 -2 2 C-1.34 1.34 -0.68 0.68 0 0 Z " fill="#171214" transform="translate(647,176)"/>
<path d="M0 0 C1 3 1 3 -0.65234375 6.57421875 C-1.40387723 7.95092168 -2.1660567 9.32185409 -2.9375 10.6875 C-3.51661133 11.7403418 -3.51661133 11.7403418 -4.10742188 12.81445312 C-5.06261773 14.54795672 -6.03015386 16.27465009 -7 18 C-7.99 17.67 -8.98 17.34 -10 17 C-8.70966095 14.72840311 -7.41778598 12.45770375 -6.125 10.1875 C-5.76019531 9.54490234 -5.39539063 8.90230469 -5.01953125 8.24023438 C-3.41916099 5.43231202 -1.79357134 2.69035702 0 0 Z " fill="#191314" transform="translate(573,314)"/>
<path d="M0 0 C0.66 0.33 1.32 0.66 2 1 C0.88182488 3.14964682 -0.24407448 5.29457566 -1.375 7.4375 C-1.85066406 8.35499023 -1.85066406 8.35499023 -2.3359375 9.29101562 C-4.7734375 13.88671875 -4.7734375 13.88671875 -7 15 C-7.1875 12.125 -7.1875 12.125 -7 9 C-6.01 8.34 -5.02 7.68 -4 7 C-4 6.01 -4 5.02 -4 4 C-3.34 4 -2.68 4 -2 4 C-1.34 2.68 -0.68 1.36 0 0 Z " fill="#1A1516" transform="translate(591,280)"/>
<path d="M0 0 C0.66 0.66 1.32 1.32 2 2 C1.40776866 3.62938774 0.80076372 5.25341128 0.1875 6.875 C-0.14894531 7.77992188 -0.48539062 8.68484375 -0.83203125 9.6171875 C-2 12 -2 12 -5 14 C-5 10.79778402 -4.389271 9.30351423 -3.0625 6.4375 C-2.70285156 5.65246094 -2.34320313 4.86742187 -1.97265625 4.05859375 C-1.33006035 2.69856146 -0.67269864 1.34539729 0 0 Z " fill="#181315" transform="translate(361,202)"/>
<path d="M0 0 C1.65 0 3.3 0 5 0 C3.8905928 3.48670834 2.73662334 6.77484237 1 10 C0.01 9.67 -0.98 9.34 -2 9 C-1.505 7.88625 -1.505 7.88625 -1 6.75 C0.22782871 3.86116688 0.22782871 3.86116688 0 0 Z " fill="#1E1719" transform="translate(557,337)"/>
<path d="M0 0 C0.66 0 1.32 0 2 0 C1.40895235 4.84659077 0.02055843 8.60748167 -2 13 C-2.66 12.67 -3.32 12.34 -4 12 C-2.66666667 8 -1.33333333 4 0 0 Z " fill="#181213" transform="translate(348,235)"/>
<path d="M0 0 C0.66 0 1.32 0 2 0 C2.67408308 1.26691507 3.33900497 2.53870749 4 3.8125 C4.556875 4.87404297 4.556875 4.87404297 5.125 5.95703125 C6 8 6 8 6 11 C5.34 11 4.68 11 4 11 C3.32591692 9.73308493 2.66099503 8.46129251 2 7.1875 C1.62875 6.47980469 1.2575 5.77210938 0.875 5.04296875 C0 3 0 3 0 0 Z " fill="#1F1516" transform="translate(435,252)"/>
<path d="M0 0 C0.66 0.33 1.32 0.66 2 1 C1.34 3.31 0.68 5.62 0 8 C-1.32 8 -2.64 8 -4 8 C-2.66666667 5.33333333 -1.33333333 2.66666667 0 0 Z " fill="#1D181A" transform="translate(261,469)"/>
<path d="M0 0 C0.66 0 1.32 0 2 0 C1.57781184 1.6498275 1.13675575 3.29483665 0.6875 4.9375 C0.44386719 5.85402344 0.20023437 6.77054687 -0.05078125 7.71484375 C-0.36402344 8.46894531 -0.67726563 9.22304688 -1 10 C-1.99 10.33 -2.98 10.66 -4 11 C-3.5247412 9.35303396 -3.04468109 7.70745272 -2.5625 6.0625 C-2.29566406 5.14597656 -2.02882813 4.22945313 -1.75390625 3.28515625 C-1 1 -1 1 0 0 Z " fill="#1B1617" transform="translate(327,293)"/>
<path d="M0 0 C0.66 0 1.32 0 2 0 C4.60753988 3.74125287 6.27251133 7.80467036 8 12 C4.3392481 10.77974937 4.07660559 9.873509 2.3125 6.5625 C1.87550781 5.75941406 1.43851562 4.95632812 0.98828125 4.12890625 C0 2 0 2 0 0 Z " fill="#181416" transform="translate(409,208)"/>
<path d="M0 0 C0.66 0.66 1.32 1.32 2 2 C-0.97 6.95 -0.97 6.95 -4 12 C-4.66 11.67 -5.32 11.34 -6 11 C-5.18993474 9.35296694 -4.3768779 7.70740494 -3.5625 6.0625 C-3.11003906 5.14597656 -2.65757812 4.22945313 -2.19140625 3.28515625 C-1 1 -1 1 0 0 Z " fill="#171214" transform="translate(685,104)"/>
<path d="M0 0 C2.61724095 2.36797991 4.32861729 4.89600354 6 8 C6 8.66 6 9.32 6 10 C3 9 3 9 1.83203125 7.15234375 C1.49558594 6.42144531 1.15914063 5.69054687 0.8125 4.9375 C0.46832031 4.20402344 0.12414062 3.47054688 -0.23046875 2.71484375 C-0.48441406 2.14894531 -0.73835938 1.58304687 -1 1 C-0.67 0.67 -0.34 0.34 0 0 Z " fill="#181215" transform="translate(456,289)"/>
<path d="M0 0 C0.66 0 1.32 0 2 0 C1.5020163 3.73487777 1.12508244 5.81237635 -1 9 C-1.66 8.67 -2.32 8.34 -3 8 C-2.01 5.36 -1.02 2.72 0 0 Z " fill="#1D1819" transform="translate(237,533)"/>
<path d="M0 0 C0.66 0.33 1.32 0.66 2 1 C1.75 4.375 1.75 4.375 1 8 C-0.98 8.99 -0.98 8.99 -3 10 C-2.01 6.7 -1.02 3.4 0 0 Z " fill="#292325" transform="translate(222,512)"/>
<path d="M0 0 C0.33 0.66 0.66 1.32 1 2 C1.66 2 2.32 2 3 2 C3.99 4.31 4.98 6.62 6 9 C5.01 9 4.02 9 3 9 C0 3.375 0 3.375 0 0 Z " fill="#1A1415" transform="translate(475,322)"/>
<path d="M0 0 C0.66 0.66 1.32 1.32 2 2 C1.67 2.99 1.34 3.98 1 5 C0.34 5 -0.32 5 -1 5 C-1.33 5.66 -1.66 6.32 -2 7 C-2 6.34 -2 5.68 -2 5 C-2.66 5 -3.32 5 -4 5 C-4 4.34 -4 3.68 -4 3 C-3.34 3 -2.68 3 -2 3 C-2 2.34 -2 1.68 -2 1 C-1.34 0.67 -0.68 0.34 0 0 Z " fill="#1D1819" transform="translate(342,252)"/>
<path d="M0 0 C0.66 0.66 1.32 1.32 2 2 C1.67 2.66 1.34 3.32 1 4 C0.34 4 -0.32 4 -1 4 C-1.66 5.32 -2.32 6.64 -3 8 C-3.33 7.01 -3.66 6.02 -4 5 C-2.0625 2.3125 -2.0625 2.3125 0 0 Z " fill="#1C1718" transform="translate(653,138)"/>
<path d="M0 0 C0.33 0 0.66 0 1 0 C0.67 2.31 0.34 4.62 0 7 C0.99 7 1.98 7 3 7 C2.67 7.66 2.34 8.32 2 9 C1.01 8.67 0.02 8.34 -1 8 C-1.8125 6.1875 -1.8125 6.1875 -2 4 C-1.0625 1.75 -1.0625 1.75 0 0 Z " fill="#1D1315" transform="translate(300,365)"/>
<path d="M0 0 C0.66 0 1.32 0 2 0 C2.33 0.99 2.66 1.98 3 3 C1.68 4.32 0.36 5.64 -1 7 C-1.33 6.34 -1.66 5.68 -2 5 C-1.0625 2.375 -1.0625 2.375 0 0 Z " fill="#2B2527" transform="translate(257,418)"/>
<path d="M0 0 C0.66 0 1.32 0 2 0 C3.6875 2.3125 3.6875 2.3125 5 5 C4.67 5.99 4.34 6.98 4 8 C0 3.375 0 3.375 0 0 Z " fill="#1C1519" transform="translate(462,300)"/>
<path d="M0 0 C0.99 0.99 1.98 1.98 3 3 C2.67 3.99 2.34 4.98 2 6 C1.01 5.67 0.02 5.34 -1 5 C-0.67 3.35 -0.34 1.7 0 0 Z " fill="#1C181B" transform="translate(427,235)"/>
</svg>
