<?xml version="1.0" encoding="UTF-8"?>
<svg version="1.1" xmlns="http://www.w3.org/2000/svg" width="2000" height="1500">
<path d="M0 0 C660 0 1320 0 2000 0 C2000 495 2000 990 2000 1500 C1340 1500 680 1500 0 1500 C0 1005 0 510 0 0 Z " fill="#301438" transform="translate(0,0)"/>
<path d="M0 0 C2.94223971 2.58342999 4.22369375 4.50384473 4.96875 8.34375 C5.72335505 27.71194627 -5.57851449 47.62166877 -13.125 64.8125 C-19.33423065 79.05102561 -25.53044539 93.2933229 -31.45703125 107.65234375 C-32.12239143 109.24315514 -32.12239143 109.24315514 -32.80119324 110.86610413 C-37.20189815 121.62395162 -41.41453079 132.47135108 -40.4375 144.25 C-28.73742745 145.11667204 -20.20998018 139.53165138 -11.4375 132.25 C3.1451824 119.36444012 13.64733277 102.82684769 23.5625 86.25 C24.18777588 85.21464111 24.81305176 84.17928223 25.45727539 83.11254883 C30.58620123 74.4139054 34.6620743 65.51695825 38.5 56.1875 C39.10407695 54.73917215 39.7091502 53.29125947 40.31518555 51.84375 C41.51248301 48.98189359 42.70582876 46.11844945 43.89550781 43.25341797 C46.18835211 37.73791763 48.52598136 32.24177629 50.875 26.75 C51.42498657 25.45243774 51.42498657 25.45243774 51.98608398 24.12866211 C54.44628729 18.36621271 54.44628729 18.36621271 55.5625 17.25 C57.74889453 17.17741054 59.93750389 17.16626217 62.125 17.1875 C63.92130859 17.20103516 63.92130859 17.20103516 65.75390625 17.21484375 C67.14416016 17.23224609 67.14416016 17.23224609 68.5625 17.25 C66.70608449 23.05965929 64.63601281 28.69860502 62.21875 34.296875 C61.89747635 35.04930481 61.5762027 35.80173462 61.24519348 36.57696533 C60.18745231 39.0526738 59.12493559 41.52630295 58.0625 44 C56.52322822 47.59831294 54.98635367 51.19764882 53.44921875 54.796875 C52.85151924 56.19492371 52.85151924 56.19492371 52.241745 57.62121582 C48.55918498 66.24066081 44.92135528 74.87865624 41.28710938 83.51855469 C12.05092366 153.01736452 12.05092366 153.01736452 2.5625 167.25 C11.58047321 168.07018408 20.50961983 168.39613306 29.56231403 168.3886652 C30.93157614 168.3911191 32.30083753 168.39400487 33.67009792 168.39727798 C37.41129961 168.40498524 41.15248232 168.4066169 44.89369097 168.4072054 C48.97181679 168.40894449 53.04993284 168.41643538 57.12805289 168.42318195 C64.26811697 168.43420897 71.40817754 168.44159896 78.54824829 168.44658089 C89.16519986 168.45400538 99.78213923 168.46709275 110.39908358 168.48132664 C128.26023682 168.50511296 146.12139223 168.5243273 163.98255348 168.54092598 C181.66451122 168.5573731 199.34646489 168.57585841 217.02841759 168.59705925 C218.12828332 168.59837686 219.22814904 168.59969446 220.36134404 168.601052 C225.94712327 168.60775419 231.53290246 168.61449273 237.11868163 168.62124526 C276.67132092 168.66899425 316.22396401 168.71218331 355.77661133 168.75268555 C394.19881465 168.79204064 432.62101484 168.83346444 471.04321289 168.87768555 C472.22778344 168.87904808 473.412354 168.88041061 474.63282063 168.88181442 C486.52888516 168.89549993 498.42494963 168.90922745 510.32101408 168.92298577 C534.55415295 168.95101148 558.78729213 168.97875674 583.02043152 169.0063324 C584.69169167 169.0082347 584.69169167 169.0082347 586.39671466 169.01017542 C660.78530466 169.0948155 735.17390182 169.17291833 809.5625 169.25 C809.5625 170.24 809.5625 171.23 809.5625 172.25 C546.8825 172.58 284.2025 172.91 13.5625 173.25 C12.9025 174.57 12.2425 175.89 11.5625 177.25 C10.46292969 177.18296875 9.36335937 177.1159375 8.23046875 177.046875 C-0.86197646 176.66631735 -0.86197646 176.66631735 -8.62890625 180.70703125 C-10.96851191 183.2529265 -13.05675474 186.00314471 -15.17236328 188.73583984 C-22.54606129 197.56094117 -36.16587348 203.89143309 -47.4375 205.25 C-55.9108524 205.83748577 -63.06001388 205.75198889 -69.9375 200.25 C-72.27608666 195.57282668 -72.36108074 191.36467818 -71.4375 186.25 C-68.60874429 179.86592461 -65.33193619 177.17962413 -59.4375 173.25 C-257.7675 172.92 -456.0975 172.59 -660.4375 172.25 C-660.4375 171.59 -660.4375 170.93 -660.4375 170.25 C-659.14306864 170.24826375 -657.84863728 170.2465275 -656.51498073 170.24473864 C-599.47975542 170.16817108 -542.44453186 170.09038038 -485.40931702 170.0063324 C-484.5461143 170.00506072 -483.68291159 170.00378904 -482.79355122 170.00247882 C-464.03477569 169.97483582 -445.27600049 169.94697279 -426.51722562 169.91888306 C-417.31820581 169.90510962 -408.11918593 169.8913848 -398.92016602 169.87768555 C-398.00474276 169.87632146 -397.0893195 169.87495738 -396.14615614 169.87355196 C-366.46347882 169.82934423 -336.78079812 169.78834895 -307.09811397 169.74901587 C-276.60062883 169.70858615 -246.10315 169.66492291 -215.60567539 169.61717889 C-211.30018727 169.61044013 -206.9946991 169.60373841 -202.68921089 169.59705925 C-201.41811197 169.59508566 -201.41811197 169.59508566 -200.12133427 169.5930722 C-186.46904995 169.57197011 -172.81676323 169.5542865 -159.16447255 169.53787469 C-145.44628435 169.52131095 -131.72810516 169.50116144 -118.00992762 169.47733159 C-109.85522751 169.46327557 -101.70053441 169.45198903 -93.54582544 169.44463562 C-87.46299106 169.43884812 -81.38017751 169.42792149 -75.29735369 169.4149667 C-72.83156829 169.41052492 -70.36577918 169.40777024 -67.89998996 169.40683801 C-64.55739419 169.40533201 -61.2148654 169.39777344 -57.87228298 169.3886652 C-56.42467099 169.3901992 -56.42467099 169.3901992 -54.94781432 169.39176419 C-50.00702694 169.37143181 -45.32962221 169.03048967 -40.4375 168.25 C-38.28324959 168.30396698 -36.12973447 168.41031613 -33.98046875 168.56640625 C-21.638295 169.58244097 -21.638295 169.58244097 -10.32177734 165.77880859 C-6.8559141 161.72590745 -5.12537303 156.90665943 -3.40625 151.91601562 C-2.079069 148.2635921 -0.35826605 144.85770415 1.37695312 141.38500977 C5.19152333 133.71536442 8.6782413 125.87562628 12.1875 118.0625 C12.53055176 117.30195312 12.87360352 116.54140625 13.22705078 115.7578125 C14.95663578 112.14387213 14.95663578 112.14387213 15.5625 108.25 C14.68851563 109.53970703 14.68851563 109.53970703 13.796875 110.85546875 C2.1136428 127.81453139 -12.03114213 144.72934288 -32.625 150.625 C-43.32710552 152.37944353 -43.32710552 152.37944353 -47.26953125 150.26953125 C-51.0773555 147.25847801 -53.13647808 144.38883997 -53.80859375 139.61328125 C-54.18662221 122.24620928 -46.37179209 106.94121624 -39.54977417 91.37702942 C-35.01596524 81.02297471 -30.56058024 70.63512862 -26.1137085 60.24349976 C-24.59373589 56.69786386 -23.064866 53.15615649 -21.53564453 49.61450195 C-17.35771336 39.89215514 -13.20224896 30.16936583 -9.7421875 20.1640625 C-9.49856476 19.48217865 -9.25494202 18.8002948 -9.00393677 18.0977478 C-7.34407782 13.057861 -7.18674933 8.48176403 -7.4375 3.25 C-25.29027755 3.60005446 -41.59442044 20.77248439 -53.23828125 32.8203125 C-59.86868751 39.83705121 -65.74618411 47.46070884 -71.4375 55.25 C-73.9007347 51.55514795 -74.83360716 48.89777158 -75.1484375 44.47265625 C-71.91816516 29.82993823 -47.18660882 16.41901087 -35.3125 8.8125 C-11.55758234 -5.8838601 -11.55758234 -5.8838601 0 0 Z " fill="#CDC3AA" transform="translate(925.4375,647.75)"/>
<path d="M0 0 C3.96 0 7.92 0 12 0 C11.32367554 3.38162232 10.81819988 5.75969416 9.53564453 8.80078125 C9.23597275 9.51770645 8.93630096 10.23463165 8.62754822 10.97328186 C8.29928543 11.74522385 7.97102264 12.51716583 7.6328125 13.3125 C7.28605972 14.13822006 6.93930695 14.96394012 6.58204651 15.81468201 C5.43414213 18.54501646 4.27960418 21.2724928 3.125 24 C2.32097062 25.90876718 1.51734755 27.81770555 0.71411133 29.72680664 C-1.41381808 34.78094373 -3.54756844 39.83260192 -5.68292236 44.88360596 C-7.87310728 50.06589669 -10.05930518 55.24986918 -12.24609375 60.43359375 C-14.73428842 66.33087261 -17.22331621 72.22779434 -19.71630859 78.12304688 C-23.50072901 87.0725059 -27.27972067 96.02363077 -31 105 C-30.01 105 -29.02 105 -28 105 C-27.72994141 104.26442871 -27.45988281 103.52885742 -27.18164062 102.77099609 C-26.04365962 100.10238362 -24.7768539 98.01670301 -23.09375 95.6640625 C-22.51955322 94.85428955 -21.94535645 94.0445166 -21.35375977 93.21020508 C-20.74201904 92.3570874 -20.13027832 91.50396973 -19.5 90.625 C-15.09155693 84.41312866 -10.74309667 78.18006097 -6.5625 71.8125 C4.48684723 55.1208857 4.48684723 55.1208857 11 52 C16.04187047 51.38082293 18.89688443 52.01591595 23 55 C22.59083435 63.1659016 20.01498366 69.85015844 16.9375 77.375 C16.43940479 78.61627223 15.94217964 79.85789393 15.44580078 81.09985352 C12.20070743 89.1874817 8.86479628 97.24080722 5.37475586 105.22607422 C3.83185065 108.79499574 2.55887374 112.14075027 2 116 C12.28817232 112.78494615 17.90696278 102.98312317 24.23144531 94.78588867 C26.35686793 92.03690118 28.44259773 89.36198615 31 87 C31.99 87.33 32.98 87.66 34 88 C30.9506212 92.90552241 27.38531708 97.28106009 23.69921875 101.72265625 C21.69205912 104.14441199 19.72467426 106.59466463 17.76953125 109.05859375 C17.20806396 109.76193848 16.64659668 110.4652832 16.06811523 111.18994141 C14.96750985 112.56970539 13.87168788 113.95330338 12.78149414 115.34130859 C4.32523267 125.89158911 4.32523267 125.89158911 -2 128 C-3.9375 128.203125 -3.9375 128.203125 -6 128.25 C-7.0209375 128.28867187 -7.0209375 128.28867187 -8.0625 128.328125 C-10.62756227 127.89371929 -11.37593284 127.00248784 -13 125 C-14.52556765 118.19576905 -11.85739078 112.05105859 -9.16796875 105.92578125 C-8.57934807 104.53458321 -8.57934807 104.53458321 -7.97883606 103.11528015 C-6.73002906 100.17436528 -5.45901164 97.24365879 -4.1875 94.3125 C-3.34426755 92.3332933 -2.50245676 90.35348026 -1.66210938 88.37304688 C4.36255396 74.23458311 4.36255396 74.23458311 6.7644043 69.58276367 C8.21577904 67.02614144 8.21577904 67.02614144 8 64 C6.35 64 4.7 64 3 64 C2.74742432 64.70672852 2.49484863 65.41345703 2.23461914 66.14160156 C0.87042633 69.29998983 -0.80817632 71.89690041 -2.75390625 74.734375 C-3.12686325 75.28143097 -3.49982025 75.82848694 -3.88407898 76.39212036 C-5.10548475 78.18137282 -6.33367145 79.9658389 -7.5625 81.75 C-8.85050933 83.62824909 -10.13740604 85.50725714 -11.42422485 87.38632202 C-12.30428607 88.67110634 -13.18496813 89.95546558 -14.06625366 91.2394104 C-17.01094518 95.53477096 -19.91306719 99.85631374 -22.79296875 104.1953125 C-23.55168622 105.33256748 -24.31071339 106.4696159 -25.07006836 107.60644531 C-26.48869903 109.73351748 -27.90007229 111.86545382 -29.30297852 114.00292969 C-33.03852348 119.57348735 -36.54650346 124.0470413 -42 128 C-45.3125 128.5 -45.3125 128.5 -48 128 C-50 126 -50 126 -50.28076172 122.80249023 C-49.98106504 118.74355479 -49.0729033 115.90614997 -47.5078125 112.16015625 C-47.246017 111.52395859 -46.9842215 110.88776093 -46.7144928 110.23228455 C-45.86287802 108.17067212 -44.99422016 106.11674354 -44.125 104.0625 C-43.53316145 102.6391286 -42.94243174 101.21529566 -42.3527832 99.79101562 C-40.86606675 96.20728892 -39.36560042 92.62950292 -37.86151123 89.05303955 C-36.53507998 85.89206414 -35.22279261 82.72532359 -33.91015625 79.55859375 C-31.6185634 74.03408976 -29.31501103 68.51472953 -27 63 C-27.78310547 64.16402344 -27.78310547 64.16402344 -28.58203125 65.3515625 C-36.34298829 76.7415485 -44.58524819 87.90850071 -54 98 C-55.17755859 99.27423828 -55.17755859 99.27423828 -56.37890625 100.57421875 C-69.06766152 113.81706814 -85.85295434 126.39941821 -104.6796875 128.265625 C-105.40414063 128.26046875 -106.12859375 128.2553125 -106.875 128.25 C-107.61492187 128.25515625 -108.35484375 128.2603125 -109.1171875 128.265625 C-111 128 -111 128 -113 126 C-112.88230915 119.88007557 -111.10928131 117.20712135 -107 113 C-103.77786243 110.85190829 -102.72224599 110.70613847 -99 111 C-98 112 -98 112 -97.9375 115.5625 C-97.958125 116.696875 -97.97875 117.83125 -98 119 C-90.27736316 116.6439413 -86.65282212 113.28015771 -82.875 106.25 C-76.63657555 93.01544773 -74.58524708 77.07202492 -79 63 C-83.46815078 67.21523659 -87.14499326 71.87914521 -90.875 76.75 C-92.05989583 78.28645833 -93.24479167 79.82291667 -94.4296875 81.359375 C-96.22903881 83.69685467 -98.02702934 86.035302 -99.8203125 88.37744141 C-104.87029455 94.93555669 -110.31777686 100.98817708 -116 107 C-116.45955078 107.4935498 -116.91910156 107.98709961 -117.39257812 108.49560547 C-123.66247529 115.20475219 -129.95657185 120.54693489 -138 125 C-139.11375 125.639375 -140.2275 126.27875 -141.375 126.9375 C-147.58554303 128.75783158 -154.28565891 129.31818099 -160.4765625 127.12109375 C-165.09861652 124.49846759 -168.45287842 121.14734162 -170 116 C-171.96912023 101.67295282 -165.98974282 88.57648396 -157.96484375 77.0859375 C-149.61996559 66.33300919 -137.71658804 54.63300389 -123.71875 52.5 C-115.9552513 52.1985049 -115.9552513 52.1985049 -112.71875 54.9140625 C-109.62639445 58.66705765 -109.65549919 61.53772131 -109.73046875 66.28125 C-110.57876991 74.83802694 -115.83741319 81.34492034 -122 87 C-131.71779214 94.43388707 -142.65474385 99.69956235 -155 100 C-156.0130604 104.23197811 -156.1985734 108.27945211 -156.25 112.625 C-156.27578125 113.93726563 -156.3015625 115.24953125 -156.328125 116.6015625 C-156.28399371 119.91929433 -156.28399371 119.91929433 -154.67578125 121.93359375 C-151.71635683 123.81686384 -149.43863038 123.38207004 -146 123 C-137.94207073 120.85031753 -132.20971542 116.39154346 -126 111 C-125.0409375 110.22269531 -125.0409375 110.22269531 -124.0625 109.4296875 C-119.50498415 105.70635982 -115.74818145 101.52532733 -112 97 C-111.54351074 96.45053711 -111.08702148 95.90107422 -110.61669922 95.33496094 C-104.38379837 87.81242566 -98.30223949 80.18856163 -92.4375 72.375 C-91.94934814 71.72466797 -91.46119629 71.07433594 -90.95825195 70.40429688 C-89.62490883 68.61255165 -88.30913073 66.80948449 -87 65 C-86.22785156 63.94039062 -85.45570312 62.88078125 -84.66015625 61.7890625 C-82.65901076 58.96809886 -82.65901076 58.96809886 -83 55 C-83 50.22946208 -82.03212341 48.60576837 -79 45 C-74.45476719 40.99586634 -72.07568145 39.74146036 -66 40 C-65.67 40.33 -65.34 40.66 -65 41 C-65.37943488 45.09789669 -65.69305957 47.53958935 -68 51 C-67.75496266 54.06296678 -67.2800405 56.95984958 -66.48046875 59.9296875 C-62.29314 75.89576114 -65.7151157 90.55837654 -73.1484375 104.83984375 C-75.41794218 108.71332326 -77.87062586 111.79429966 -81 115 C-67.40603581 107.1593868 -57.65572693 97.18610449 -48.36328125 84.79394531 C-47.00975668 83.01283884 -45.62288729 81.26484306 -44.21875 79.5234375 C-27.99183895 59.38488502 -16.42899913 37.7016082 -6.28271484 13.96142578 C-4.25385898 9.27737143 -2.12719779 4.64011726 0 0 Z " fill="#CFC7B2" transform="translate(1141,669)"/>
<path d="M0 0 C3.96 0 7.92 0 12 0 C11.32367554 3.38162232 10.81819988 5.75969416 9.53564453 8.80078125 C9.08613686 9.87616905 9.08613686 9.87616905 8.62754822 10.97328186 C8.29928543 11.74522385 7.97102264 12.51716583 7.6328125 13.3125 C7.11268333 14.55108009 7.11268333 14.55108009 6.58204651 15.81468201 C5.43414213 18.54501646 4.27960418 21.2724928 3.125 24 C2.32097062 25.90876718 1.51734755 27.81770555 0.71411133 29.72680664 C-1.41381808 34.78094373 -3.54756844 39.83260192 -5.68292236 44.88360596 C-7.87310728 50.06589669 -10.05930518 55.24986918 -12.24609375 60.43359375 C-14.73428842 66.33087261 -17.22331621 72.22779434 -19.71630859 78.12304688 C-23.50072901 87.0725059 -27.27972067 96.02363077 -31 105 C-30.01 105 -29.02 105 -28 105 C-27.72994141 104.26442871 -27.45988281 103.52885742 -27.18164062 102.77099609 C-26.04365962 100.10238362 -24.7768539 98.01670301 -23.09375 95.6640625 C-22.51955322 94.85428955 -21.94535645 94.0445166 -21.35375977 93.21020508 C-20.43614868 91.93052856 -20.43614868 91.93052856 -19.5 90.625 C-15.09155693 84.41312866 -10.74309667 78.18006097 -6.5625 71.8125 C4.48684723 55.1208857 4.48684723 55.1208857 11 52 C16.04187047 51.38082293 18.89688443 52.01591595 23 55 C22.59083435 63.1659016 20.01498366 69.85015844 16.9375 77.375 C16.43940479 78.61627223 15.94217964 79.85789393 15.44580078 81.09985352 C12.20070743 89.1874817 8.86479628 97.24080722 5.37475586 105.22607422 C3.83185065 108.79499574 2.55887374 112.14075027 2 116 C12.28817232 112.78494615 17.90696278 102.98312317 24.23144531 94.78588867 C26.35686793 92.03690118 28.44259773 89.36198615 31 87 C32.485 87.495 32.485 87.495 34 88 C30.9506212 92.90552241 27.38531708 97.28106009 23.69921875 101.72265625 C21.69205912 104.14441199 19.72467426 106.59466463 17.76953125 109.05859375 C16.92733032 110.11361084 16.92733032 110.11361084 16.06811523 111.18994141 C14.96750985 112.56970539 13.87168788 113.95330338 12.78149414 115.34130859 C4.32523267 125.89158911 4.32523267 125.89158911 -2 128 C-3.9375 128.203125 -3.9375 128.203125 -6 128.25 C-7.0209375 128.28867187 -7.0209375 128.28867187 -8.0625 128.328125 C-10.62756227 127.89371929 -11.37593284 127.00248784 -13 125 C-14.52556765 118.19576905 -11.85739078 112.05105859 -9.16796875 105.92578125 C-8.77555496 104.99831589 -8.38314117 104.07085052 -7.97883606 103.11528015 C-6.73002906 100.17436528 -5.45901164 97.24365879 -4.1875 94.3125 C-3.34426755 92.3332933 -2.50245676 90.35348026 -1.66210938 88.37304688 C4.36255396 74.23458311 4.36255396 74.23458311 6.7644043 69.58276367 C8.21577904 67.02614144 8.21577904 67.02614144 8 64 C6.35 64 4.7 64 3 64 C2.74742432 64.70672852 2.49484863 65.41345703 2.23461914 66.14160156 C0.87042633 69.29998983 -0.80817632 71.89690041 -2.75390625 74.734375 C-3.12686325 75.28143097 -3.49982025 75.82848694 -3.88407898 76.39212036 C-5.10548475 78.18137282 -6.33367145 79.9658389 -7.5625 81.75 C-8.85050933 83.62824909 -10.13740604 85.50725714 -11.42422485 87.38632202 C-12.30428607 88.67110634 -13.18496813 89.95546558 -14.06625366 91.2394104 C-17.01094518 95.53477096 -19.91306719 99.85631374 -22.79296875 104.1953125 C-23.55168622 105.33256748 -24.31071339 106.4696159 -25.07006836 107.60644531 C-26.48869903 109.73351748 -27.90007229 111.86545382 -29.30297852 114.00292969 C-33.03852348 119.57348735 -36.54650346 124.0470413 -42 128 C-45.3125 128.5 -45.3125 128.5 -48 128 C-50 126 -50 126 -50.28076172 122.80249023 C-49.98106504 118.74355479 -49.0729033 115.90614997 -47.5078125 112.16015625 C-47.246017 111.52395859 -46.9842215 110.88776093 -46.7144928 110.23228455 C-45.86287802 108.17067212 -44.99422016 106.11674354 -44.125 104.0625 C-43.53316145 102.6391286 -42.94243174 101.21529566 -42.3527832 99.79101562 C-40.86606675 96.20728892 -39.36560042 92.62950292 -37.86151123 89.05303955 C-36.53507998 85.89206414 -35.22279261 82.72532359 -33.91015625 79.55859375 C-31.6185634 74.03408976 -29.31501103 68.51472953 -27 63 C-27.52207031 63.77601563 -28.04414062 64.55203125 -28.58203125 65.3515625 C-56.94027149 106.97013575 -56.94027149 106.97013575 -73 115 C-73.99 114.67 -74.98 114.34 -76 114 C-73.30561957 110.40125576 -70.58577319 107.75716586 -67 105.0625 C-38.94000986 82.47309149 -20.13895231 46.38212244 -6.28271484 13.96142578 C-4.25385898 9.27737143 -2.12719779 4.64011726 0 0 Z " fill="#D0C8B3" transform="translate(1141,669)"/>
<path d="M0 0 C1.36067049 0.01005022 2.72134817 0.01917246 4.08203125 0.02734375 C7.38820647 0.0507918 10.6940088 0.08361144 14 0.125 C13.05268337 1.4050557 12.10300588 2.68336444 11.15234375 3.9609375 C10.35944946 5.02900635 10.35944946 5.02900635 9.55053711 6.11865234 C7.55733487 8.69779516 5.39022822 10.90966652 3 13.125 C2.48824219 13.61871094 1.97648438 14.11242187 1.44921875 14.62109375 C-5.71418413 21.22459847 -12.15878301 23.47196073 -21.8125 23.625 C-22.55419434 23.64353027 -23.29588867 23.66206055 -24.06005859 23.68115234 C-27.61333462 23.63993854 -29.60960572 23.42884755 -32.44921875 21.21875 C-35.05662988 17.69841658 -35.43057672 15.51688254 -35 11.125 C-31.57741059 5.13546853 -25.93209137 3.09892237 -19.671875 1.01953125 C-13.23718799 -0.52626082 -6.57136206 -0.08367062 0 0 Z " fill="#33183A" transform="translate(893,824.875)"/>
<path d="M0 0 C2 2 2 2 2.1171875 3.84765625 C0.83396552 15.58292824 -4.98977735 25.28000724 -14.1484375 32.68359375 C-19.50336953 36.49079226 -24.46404735 38.45533728 -31 39 C-28.0915199 27.94777561 -13.96056513 -2.71455433 0 0 Z " fill="#34193B" transform="translate(1019,726)"/>
</svg>
